<?xml version="1.0" encoding="UTF-8" standalone="no"?>
<!-- Created with Inkscape (http://www.inkscape.org/) -->

<svg
   xmlns:dc="http://purl.org/dc/elements/1.1/"
   xmlns:cc="http://creativecommons.org/ns#"
   xmlns:rdf="http://www.w3.org/1999/02/22-rdf-syntax-ns#"
   xmlns:svg="http://www.w3.org/2000/svg"
   xmlns="http://www.w3.org/2000/svg"
   xmlns:xlink="http://www.w3.org/1999/xlink"
   xmlns:sodipodi="http://sodipodi.sourceforge.net/DTD/sodipodi-0.dtd"
   xmlns:inkscape="http://www.inkscape.org/namespaces/inkscape"
   width="32"
   height="32"
   viewBox="0 0 8.4666665 8.4666669"
   version="1.1"
   id="svg8"
   inkscape:version="0.92.3 (2405546, 2018-03-11)"
   sodipodi:docname="drawing.svg"
   inkscape:export-filename="C:\Users\Stachu\Desktop\skrypty\wod\newest\online\nodejs\htdocs\tiles\explode8.png"
   inkscape:export-xdpi="96.000008"
   inkscape:export-ydpi="96.000008">
  <defs
     id="defs2">
    <linearGradient
       id="linearGradient884"
       inkscape:collect="always">
      <stop
         id="stop880"
         offset="0"
         style="stop-color:#333333;stop-opacity:0.2962963" />
      <stop
         id="stop882"
         offset="1"
         style="stop-color:#000000;stop-opacity:0" />
    </linearGradient>
    <linearGradient
       inkscape:collect="always"
       id="linearGradient846">
      <stop
         style="stop-color:#000000;stop-opacity:1"
         offset="0"
         id="stop842" />
      <stop
         style="stop-color:#b3b3b3;stop-opacity:1"
         offset="1"
         id="stop844" />
    </linearGradient>
    <radialGradient
       inkscape:collect="always"
       xlink:href="#linearGradient846"
       id="radialGradient848"
       cx="4.6296966"
       cy="292.86551"
       fx="4.6296966"
       fy="292.86551"
       r="3.0852504"
       gradientTransform="matrix(1,0,0,0.97035252,0,8.6827251)"
       gradientUnits="userSpaceOnUse" />
    <radialGradient
       inkscape:collect="always"
       xlink:href="#linearGradient846"
       id="radialGradient858"
       gradientUnits="userSpaceOnUse"
       gradientTransform="matrix(1.2982907,0,0,1.3143486,-1.6774978,-92.191325)"
       cx="4.6296966"
       cy="292.86551"
       fx="4.6296966"
       fy="292.86551"
       r="3.0852504" />
    <radialGradient
       inkscape:collect="always"
       xlink:href="#linearGradient884"
       id="radialGradient878"
       cx="4.3327603"
       cy="292.73431"
       fx="4.3327603"
       fy="292.73431"
       r="3.9665878"
       gradientTransform="matrix(0.87373865,-0.01194097,0.01041547,0.76211663,-2.5019059,69.688383)"
       gradientUnits="userSpaceOnUse" />
  </defs>
  <sodipodi:namedview
     id="base"
     pagecolor="#ffffff"
     bordercolor="#666666"
     borderopacity="1.0"
     inkscape:pageopacity="0.0"
     inkscape:pageshadow="2"
     inkscape:zoom="31.678384"
     inkscape:cx="15.228981"
     inkscape:cy="18.05023"
     inkscape:document-units="mm"
     inkscape:current-layer="g921"
     showgrid="false"
     units="px"
     inkscape:window-width="1600"
     inkscape:window-height="877"
     inkscape:window-x="-8"
     inkscape:window-y="-8"
     inkscape:window-maximized="1" />
  <metadata
     id="metadata5">
    <rdf:RDF>
      <cc:Work
         rdf:about="">
        <dc:format>image/svg+xml</dc:format>
        <dc:type
           rdf:resource="http://purl.org/dc/dcmitype/StillImage" />
        <dc:title></dc:title>
      </cc:Work>
    </rdf:RDF>
  </metadata>
  <g
     inkscape:label="Layer 1"
     inkscape:groupmode="layer"
     id="layer1"
     transform="translate(0,-288.53332)"
     style="display:none"
     sodipodi:insensitive="true">
    <path
       style="fill:#fff6d5;stroke:#ffeeaa;stroke-width:0.26458332px;stroke-linecap:butt;stroke-linejoin:miter;stroke-opacity:1"
       d="m 3.7417734,292.65686 c 0.013422,-0.0437 0.1185397,-0.0358 0.1503389,-0.0835 0.00691,-0.0104 0.00923,-0.0234 0.016706,-0.0334 0.00945,-0.0126 0.023569,-0.0211 0.033409,-0.0334 0.012541,-0.0157 0.021363,-0.0341 0.033409,-0.0501 0.00473,-0.006 0.013184,-0.01 0.016706,-0.0167 0.00249,-0.005 -0.00249,-0.0117 0,-0.0167 0.00352,-0.007 0.012335,-0.0102 0.016703,-0.0167 0.00691,-0.0104 0.0098,-0.0231 0.016703,-0.0334 0.00437,-0.007 0.013182,-0.01 0.016703,-0.0167 0.00249,-0.005 -0.00249,-0.0117 0,-0.0167 0.0074,-0.0148 0.039976,-0.0349 0.050113,-0.0501 0.00691,-0.0104 0.00893,-0.0237 0.016703,-0.0334 0.045838,-0.0573 0.046155,-0.043 0.1002263,-0.0835 0.012599,-0.009 0.019322,-0.0264 0.033409,-0.0334 0.00374,-0.002 0.062848,0 0.066817,0 0.012263,0 0.094403,-0.003 0.100226,0 0.00704,0.004 0.00966,0.0132 0.016703,0.0167 0.00498,0.002 0.011724,-0.002 0.016703,0 0.00704,0.004 0.011136,0.0111 0.016703,0.0167 0.00557,0.006 0.011136,0.0111 0.016703,0.0167 0.016703,0.0167 0.033409,0.0334 0.050113,0.0501 0.00557,0.006 0.013182,0.01 0.016703,0.0167 0.00249,0.005 0,0.0111 0,0.0167 0.011136,0.0167 0.021362,0.0341 0.033409,0.0501 0.014174,0.0189 0.033409,0.0334 0.050113,0.0501 0.022273,0.0223 0.042222,0.0471 0.066817,0.0668 0.058158,0.0465 0.095612,0.0501 0.1670434,0.0501 0.022273,0 0.045963,-0.008 0.066818,0 0.026067,0.01 0.042944,0.0358 0.066817,0.0501 0.00478,0.003 0.011245,-0.001 0.016703,0 0.022513,0.004 0.044172,0.0129 0.066817,0.0167 0.030068,0.005 0.073499,-0.01 0.1002263,0 0.026067,0.01 0.041916,0.0377 0.066817,0.0501 0.068375,0.0342 0.06331,0.005 0.1336347,0.0167 0.060498,0.0101 0.011927,0.0143 0.050113,0.0334 0.00498,0.002 0.011136,0 0.016703,0 0.022273,0.0111 0.046896,0.0185 0.066817,0.0334 0.00446,0.003 -0.00249,0.0117 0,0.0167 0.00352,0.007 0.014213,0.009 0.016703,0.0167 0.00528,0.0159 0,0.0334 0,0.0501 0,0.004 0.00188,0.0631 0,0.0668 -0.00756,0.0151 -0.063682,0.0479 -0.066817,0.0501 -0.022656,0.0162 -0.041916,0.0377 -0.066817,0.0501 -0.033409,0.0167 -0.025056,-0.008 -0.050113,0 -0.011811,0.004 -0.021598,0.0128 -0.033409,0.0167 -0.012795,0.004 -0.058405,-0.005 -0.066817,0 -0.023873,0.0143 -0.042944,0.0358 -0.066817,0.0501 -0.00361,0.002 -0.1152879,0 -0.1169305,0 -0.061249,0 -0.1224986,0 -0.1837478,0 -0.016703,0 -0.033409,0 -0.050113,0 -0.016703,0 -0.033907,-0.004 -0.050113,0 -0.00764,0.002 -0.00923,0.0142 -0.016706,0.0167 -0.010565,0.004 -0.022844,-0.004 -0.033409,0 -0.00904,0.003 -0.039139,0.0428 -0.050113,0.0501 -0.010358,0.007 -0.023051,0.01 -0.033409,0.0167 -0.038225,0.0255 0.010446,0.0132 -0.050113,0.0334 -0.00528,0.002 -0.011136,0 -0.016703,0 -0.011136,0 -0.022273,0 -0.033409,0 -0.044545,0 -0.08909,0 -0.1336347,0 -0.08909,0 -0.1781796,0 -0.2672696,0 -0.023791,0 -0.1231598,0.003 -0.1336347,0 -0.014941,-0.005 -0.020304,-0.0247 -0.033409,-0.0334 -0.00463,-0.003 -0.011136,0 -0.016703,0 -0.022273,0 -0.045688,0.007 -0.066818,0 -0.014941,-0.005 -0.020304,-0.0247 -0.033409,-0.0334 -0.00463,-0.003 -0.011724,0.002 -0.016703,0 -0.018865,-0.009 -0.062534,-0.075 -0.066817,-0.0835 -0.00249,-0.005 0.00249,-0.0117 0,-0.0167 -0.00352,-0.007 -0.014213,-0.009 -0.016703,-0.0167 -0.00254,-0.008 0,-0.0742 0,-0.0835 0,-0.0334 0,-0.0668 0,-0.10023 0,-0.0111 0.0022,-0.0225 0,-0.0334 -0.0045,-0.0225 -0.011136,-0.0445 -0.016703,-0.0668 z"
       id="path815"
       inkscape:connector-curvature="0" />
  </g>
  <g
     style="display:none"
     transform="translate(0,-288.53332)"
     id="g820"
     inkscape:groupmode="layer"
     inkscape:label="2"
     sodipodi:insensitive="true">
    <path
       inkscape:connector-curvature="0"
       id="path818"
       d="m 3.7417824,292.65693 c 0.015286,-0.0521 0.1349978,-0.0426 0.1712121,-0.0995 0.00787,-0.0124 0.010513,-0.0279 0.019026,-0.0398 0.010762,-0.0151 0.026842,-0.0252 0.038047,-0.0398 0.014281,-0.0187 0.024329,-0.0407 0.038047,-0.0597 0.00538,-0.008 0.015014,-0.0119 0.019026,-0.0199 0.00284,-0.006 -0.00284,-0.014 0,-0.0199 0.00401,-0.009 0.014048,-0.0122 0.019023,-0.0199 0.00787,-0.0124 0.011158,-0.0276 0.019023,-0.0398 0.00498,-0.009 0.015012,-0.0119 0.019022,-0.0199 0.00284,-0.006 -0.00284,-0.014 0,-0.0199 0.00842,-0.0177 0.045526,-0.0417 0.057071,-0.0597 0.00787,-0.0124 -0.5415144,-0.4862 -0.5326621,-0.49776 0.052202,-0.0683 0.2523109,0.0185 0.3138895,-0.0298 -0.1758877,-0.20986 -0.016042,-0.2505 3e-7,-0.25884 0.00426,-0.002 -0.166221,-0.79644 -0.1617009,-0.79644 0.013965,0 0.7352886,1.40014 0.74192,1.40371 0.00801,0.004 0.010999,0.0157 0.019023,0.0199 0.00567,0.002 0.013351,-0.002 0.019023,0 0.00801,0.004 0.012682,0.0132 0.019022,0.0199 0.00635,0.008 0.012682,0.0132 0.019022,0.0199 l 0.057071,0.0597 c 0.00635,0.008 0.015012,0.0119 0.019022,0.0199 0.00284,0.006 0,0.0132 0,0.0199 0.012682,0.0199 0.024328,0.0407 0.038047,0.0597 0.016142,0.0225 0.038047,0.0398 0.057071,0.0597 0.025366,0.0266 0.048084,0.0562 0.076093,0.0796 0.070946,0.0445 1.799309,-3.81215 0.190236,0.0597 -0.010114,0.0243 0.052344,-0.01 0.076094,0 0.029687,0.0119 0.048907,0.0427 0.076093,0.0597 0.00545,0.003 0.012806,-0.001 0.019023,0 0.025639,0.004 1.4865861,-0.96024 1.5123751,-0.95572 0.034243,0.006 -1.3525775,0.96371 -1.3221394,0.97563 0.029687,0.0119 0.047735,0.045 0.076093,0.0597 0.077868,0.0408 0.072101,0.006 0.1521886,0.0199 0.068898,0.012 0.013583,0.017 0.057071,0.0398 0.00567,0.002 0.012682,0 0.019023,0 0.025366,0.0132 0.053407,0.0221 0.076093,0.0398 0.00508,0.003 -0.00284,0.014 0,0.0199 0.00401,0.009 0.016186,0.0108 0.019022,0.0199 0.00601,0.0189 1.2039281,0.10309 1.2039281,0.12306 0,0.004 -1.2017872,0.0119 -1.2039281,0.0162 -0.00861,0.018 -0.072524,0.057 -0.076093,0.0597 -0.025802,0.0193 -0.047735,0.045 -0.076093,0.0597 -0.038047,0.0199 -0.028535,-0.01 -0.057071,0 -0.013451,0.004 0.2988044,0.52297 0.2853536,0.52762 -0.014572,0.004 0.1617691,0.31263 0.1521891,0.31859 -0.027188,0.017 -0.3804714,-0.0597 -0.3804714,-0.0597 0.1956365,0.83865 -0.3800541,0.25081 -0.3804719,0.24889 l -0.2092595,-0.95571 h -0.057071 c -0.019021,0 -0.038615,-0.004 -0.057071,0 -0.0087,0.002 -0.010513,0.0169 -0.019026,0.0199 -0.012032,0.004 -0.026016,-0.004 -0.038047,0 -0.010301,0.003 -0.044573,0.051 -0.057071,0.0597 -0.011796,0.009 -0.026251,0.012 -0.038047,0.0199 -0.043533,0.0303 0.011897,0.0157 -0.057071,0.0398 -0.00601,0.002 -0.012682,0 -0.019023,0 h -0.038046 l -0.5992429,0.81626 0.1426768,-0.81634 c 0.00488,-0.0279 -0.1402594,0.003 -0.1521887,0 -0.017016,-0.006 -0.023123,-0.0295 -0.038047,-0.0398 -0.00527,-0.003 -0.012682,0 -0.019022,0 -0.025365,0 -0.052031,0.009 -0.076095,0 -0.017016,-0.006 -0.023123,-0.0295 -0.038047,-0.0398 -0.00527,-0.003 -0.013351,0.002 -0.019023,0 -0.021484,-0.0108 -0.071216,-0.0894 -0.076093,-0.0995 -0.00284,-0.006 0.00284,-0.014 0,-0.0199 -0.00401,-0.009 -0.016187,-0.0108 -0.019023,-0.0199 -0.00289,-0.01 0,-0.0884 0,-0.0995 v -0.11947 c 0,-0.0132 -1.4813348,0.0329 -1.4838402,0.0199 -0.00512,-0.0268 1.4711581,-0.11275 1.4648181,-0.13934 z"
       style="fill:#fff6d5;stroke:#ffeeaa;stroke-width:0.26458335px;stroke-linecap:butt;stroke-linejoin:miter;stroke-opacity:1"
       sodipodi:nodetypes="cccccccccccccccscccccccccccsccccccccccccscccccccscsccccccsccsccsccccccssccc" />
  </g>
  <g
     inkscape:label="3"
     inkscape:groupmode="layer"
     id="g824"
     transform="translate(0,-288.53332)"
     style="display:none"
     sodipodi:insensitive="true">
    <path
       style="fill:#b3b3b3;stroke:#cccccc;stroke-width:0.26458332px;stroke-linecap:butt;stroke-linejoin:miter;stroke-opacity:1"
       d="m 4.6274219,291.45807 c 0.353517,-0.26822 1.0051664,0.28614 1.0051664,0.28614 0,0 1.1823515,0.28841 0.3858907,0.76148 -0.069823,0.37276 0.4980883,0.87094 -0.1650898,1.0171 -0.2282823,0.25889 -1.4488009,0.42243 -2.1708907,-0.11791 -0.4464676,-0.23966 0.00157,-1.11733 0.00157,-1.11733 z"
       id="path826"
       inkscape:connector-curvature="0"
       sodipodi:nodetypes="ccccccc" />
    <path
       sodipodi:nodetypes="cccccccccccccccscccccccccccsccccccccccccscccccccscsccccccsccsccsccccccssccc"
       style="fill:#fff6d5;stroke:#ffeeaa;stroke-width:0.26458335px;stroke-linecap:butt;stroke-linejoin:miter;stroke-opacity:1"
       d="m 3.7417824,292.65693 c 0.015286,-0.0521 0.1349978,-0.0426 0.1712121,-0.0995 0.00787,-0.0124 0.010513,-0.0279 0.019026,-0.0398 0.010762,-0.0151 0.026842,-0.0252 0.038047,-0.0398 0.014281,-0.0187 0.024329,-0.0407 0.038047,-0.0597 0.00538,-0.008 0.015014,-0.0119 0.019026,-0.0199 0.00284,-0.006 -0.00284,-0.014 0,-0.0199 0.00401,-0.009 0.014048,-0.0122 0.019023,-0.0199 0.00787,-0.0124 0.011158,-0.0276 0.019023,-0.0398 0.00498,-0.009 0.015012,-0.0119 0.019022,-0.0199 0.00284,-0.006 -0.00284,-0.014 0,-0.0199 0.00842,-0.0177 0.045526,-0.0417 0.057071,-0.0597 0.00787,-0.0124 -0.8756013,-0.92051 -0.866749,-0.93207 0.052202,-0.0683 0.5863978,0.45281 0.6479764,0.40451 -0.1758877,-0.20986 -0.4420028,-0.96043 -0.4259605,-0.96877 0.00426,-0.002 -0.1425138,-1.10839 0.1974425,-0.2953 0.1627334,0.38921 0.802106,1.60894 0.8087374,1.61251 0.00801,0.004 0.010999,0.0157 0.019023,0.0199 0.00567,0.002 0.013351,-0.002 0.019023,0 0.00801,0.004 0.012682,0.0132 0.019022,0.0199 0.00635,0.008 0.012682,0.0132 0.019022,0.0199 l 0.057071,0.0597 c 0.00635,0.008 0.015012,0.0119 0.019022,0.0199 0.00284,0.006 0,0.0132 0,0.0199 0.012682,0.0199 0.024328,0.0407 0.038047,0.0597 0.016142,0.0225 0.038047,0.0398 0.057071,0.0597 0.025366,0.0266 0.2986492,-0.9043 0.3266582,-0.8809 0.070946,0.0445 3.5384415,-2.46416 0.190236,0.0597 -0.5530052,0.41685 -0.1982212,0.9505 -0.1744712,0.9605 0.029687,0.0119 0.048907,0.0427 0.076093,0.0597 0.00545,0.003 0.012806,-10e-4 0.019023,0 0.025639,0.004 1.7872643,-1.14399 1.8130533,-1.13947 0.034243,0.006 -1.6532557,1.14746 -1.6228176,1.15938 0.029687,0.0119 0.047735,0.045 0.076093,0.0597 0.077868,0.0408 0.072101,0.006 0.1521886,0.0199 0.068898,0.012 0.013583,0.017 0.057071,0.0398 0.00567,0.002 0.012682,0 0.019023,0 0.025366,0.0132 0.053407,0.0221 0.076093,0.0398 0.00508,0.003 -0.00284,0.014 0,0.0199 0.00401,0.009 0.016186,0.0108 0.019022,0.0199 0.00601,0.0189 1.7551715,0.11979 1.7551715,0.13976 0,0.004 -1.7530306,-0.005 -1.7551715,-5e-4 -0.00861,0.018 -0.072524,0.057 -0.076093,0.0597 -0.025802,0.0193 -0.047735,0.045 -0.076093,0.0597 -0.038047,0.0199 -0.028535,-0.01 -0.057071,0 -0.013451,0.004 0.2988044,0.52297 0.2853536,0.52762 -0.014572,0.004 0.5710256,0.76365 0.5614456,0.76961 -0.027188,0.017 -0.7897279,-0.51072 -0.7897279,-0.51072 0.1956365,0.83865 -0.2130244,1.08603 -0.2134284,1.08411 l -0.376303,-1.79093 h -0.057071 c -0.019021,0 -0.038615,-0.004 -0.057071,0 -0.0087,0.002 -0.010513,0.0169 -0.019026,0.0199 -0.012032,0.004 -0.026016,-0.004 -0.038047,0 -0.010301,0.003 -0.044573,0.051 -0.057071,0.0597 -0.011796,0.009 -0.026251,0.012 -0.038047,0.0199 -0.043533,0.0303 0.011897,0.0157 -0.057071,0.0398 -0.00601,0.002 -0.012682,0 -0.019023,0 h -0.038046 l -0.8163994,1.63477 0.3598333,-1.63485 c 0.00609,-0.0277 -0.1402594,0.003 -0.1521887,0 -0.017016,-0.006 -0.023123,-0.0295 -0.038047,-0.0398 -0.00527,-0.003 -0.012682,0 -0.019022,0 -0.025365,0 -0.052031,0.009 -0.076095,0 -0.017016,-0.006 -0.023123,-0.0295 -0.038047,-0.0398 -0.00527,-0.003 -0.013351,0.002 -0.019023,0 -0.021484,-0.0108 -0.071216,-0.0894 -0.076093,-0.0995 -0.00284,-0.006 0.00284,-0.014 0,-0.0199 -0.00401,-0.009 -0.016187,-0.0108 -0.019023,-0.0199 -0.00289,-0.01 0,-0.0884 0,-0.0995 v -0.11947 c 0,-0.0132 -2.216326,0.19159 -2.2188314,0.17859 -0.00512,-0.0268 2.2061493,-0.27144 2.1998093,-0.29803 z"
       id="path822"
       inkscape:connector-curvature="0" />
  </g>
  <g
     style="display:none"
     transform="translate(0,-288.53332)"
     id="g832"
     inkscape:groupmode="layer"
     inkscape:label="4"
     sodipodi:insensitive="true">
    <path
       sodipodi:nodetypes="ccccccc"
       inkscape:connector-curvature="0"
       id="path828"
       d="m 4.6023654,291.18245 c 0.353517,-0.26822 1.3476055,0.33625 1.3476055,0.33625 0,0 1.5498471,1.09857 0.210495,1.12898 0.2976726,0.51474 0.5732579,1.11315 -0.3070767,0.87511 0.1475655,1.06905 -1.6993661,0.95697 -2.4381602,-0.009 -0.4464676,-0.23966 -0.015134,-1.43471 -0.015134,-1.43471 0.4091091,-0.2069 0.9637335,-1.12386 1.2022708,-0.8963 z"
       style="fill:#b3b3b3;stroke:#cccccc;stroke-width:0.26458332px;stroke-linecap:butt;stroke-linejoin:miter;stroke-opacity:1" />
    <path
       inkscape:connector-curvature="0"
       id="path830"
       d="m 4.2469769,292.53657 c 0.00816,-0.0279 0.072102,-0.0228 0.091444,-0.0532 0.0042,-0.007 0.00561,-0.0149 0.010162,-0.0213 0.00575,-0.008 0.014336,-0.0135 0.020321,-0.0213 0.00763,-0.01 0.012994,-0.0218 0.020321,-0.0319 0.00287,-0.004 0.00802,-0.006 0.010162,-0.0106 0.00152,-0.003 -0.00152,-0.007 0,-0.0106 0.00214,-0.005 0.0075,-0.007 0.01016,-0.0106 0.0042,-0.007 0.00596,-0.0148 0.01016,-0.0213 0.00266,-0.005 0.00802,-0.006 0.01016,-0.0106 0.00152,-0.003 -0.00152,-0.007 0,-0.0106 0.0045,-0.009 0.024315,-0.0223 0.030482,-0.0319 0.0042,-0.007 -0.289221,-0.26005 -0.2844931,-0.26623 0.027881,-0.0365 0.1347584,0.01 0.1676474,-0.0159 -0.093941,-0.11225 0.074952,-0.33444 0.083522,-0.3389 0.00228,-0.001 -1.5921691,-1.33637 -1.5897551,-1.33637 0.00746,0 1.8125846,1.85972 1.8161264,1.86163 0.00428,0.002 0.00587,0.008 0.01016,0.0106 0.00303,0.001 0.00713,-10e-4 0.01016,0 0.00428,0.002 0.00677,0.007 0.01016,0.0106 0.00339,0.004 0.00677,0.007 0.01016,0.0106 l 0.030481,0.0319 c 0.00339,0.004 0.00802,0.006 0.01016,0.0106 0.00152,0.003 0,0.007 0,0.0106 0.00677,0.0106 0.012993,0.0218 0.020321,0.0319 0.00862,0.012 0.020321,0.0213 0.030481,0.0319 0.013548,0.0142 0.025682,0.0301 0.040641,0.0426 0.037892,0.0238 -1.027266,1.96908 0.1016044,0.0319 3.49138,-5.99134 0.028462,-0.006 0.040641,0 0.015856,0.006 0.026121,0.0228 0.040641,0.0319 0.00291,0.002 0.00684,-5.4e-4 0.01016,0 0.013694,0.002 2.7567411,-1.86665 2.770515,-1.86423 0.018289,0.003 -2.6851677,1.8685 -2.6689108,1.87488 0.015856,0.006 0.025495,0.0241 0.040641,0.0319 0.041589,0.0218 0.038509,0.003 0.081283,0.0106 0.036798,0.006 0.00725,0.009 0.030481,0.0213 0.00303,10e-4 0.00677,0 0.01016,0 0.013548,0.007 0.028524,0.0118 0.040641,0.0213 0.00271,0.002 -0.00152,0.007 0,0.0106 0.00214,0.005 0.00864,0.006 0.01016,0.0106 0.00321,0.0101 6.0400419,0.59751 0.6430139,0.0658 -0.00199,-2e-4 -0.6418705,0.006 -0.6430139,0.009 -0.0046,0.01 -0.038735,0.0305 -0.040641,0.0319 -0.013781,0.0103 -0.025495,0.0241 -0.040641,0.0319 -0.020321,0.0106 -0.01524,-0.005 -0.030481,0 -0.00718,0.002 0.1595904,0.27971 0.1524064,0.2822 -0.00778,0.002 1.9990476,1.4618 1.9939316,1.46499 -0.014521,0.009 -1.9488126,-0.98405 -1.9488126,-0.98405 0.1044888,0.44856 -0.2114444,1.71273 -0.2115609,1.71168 l -0.270458,-2.43227 h -0.030481 c -0.010159,0 -0.020624,-0.002 -0.030481,0 -0.00465,10e-4 -0.00561,0.009 -0.010162,0.0106 -0.00643,0.002 -0.013895,-0.002 -0.020321,0 -0.0055,0.002 -0.023806,0.0273 -0.030481,0.0319 -0.0063,0.005 -0.014021,0.006 -0.020321,0.0106 -0.023251,0.0162 0.00635,0.008 -0.030481,0.0213 -0.00321,0.001 -0.00677,0 -0.01016,0 h -0.02032 l -1.7232186,2.06525 1.479368,-2.0653 c 0.00881,-0.0123 -0.074912,0.002 -0.081284,0 -0.00909,-0.003 -0.01235,-0.0158 -0.020321,-0.0213 -0.00281,-0.002 -0.00677,0 -0.01016,0 -0.013547,0 -0.027789,0.005 -0.040642,0 -0.00909,-0.003 -0.01235,-0.0158 -0.020321,-0.0213 -0.00281,-0.002 -0.00713,10e-4 -0.01016,0 -0.011475,-0.006 -0.038036,-0.0478 -0.040641,-0.0532 -0.00152,-0.003 0.00152,-0.007 0,-0.0106 -0.00214,-0.005 -0.00865,-0.006 -0.01016,-0.0106 -0.00154,-0.005 0,-0.0473 0,-0.0532 v -0.0639 c 0,-0.007 -3.1130798,0.25981 -3.114418,0.25281 -0.00273,-0.0143 3.1076446,-0.30251 3.1042584,-0.31671 z"
       style="fill:#fff6d5;stroke:#ffeeaa;stroke-width:0.26458335px;stroke-linecap:butt;stroke-linejoin:miter;stroke-opacity:1"
       sodipodi:nodetypes="cccccccccccccccscccccccccccsccccccccccccscccccccscsccccccsccsccsccccccssccc" />
  </g>
  <g
     inkscape:label="5"
     inkscape:groupmode="layer"
     id="g838"
     transform="translate(0,-288.53332)"
     style="display:none"
     sodipodi:insensitive="true">
    <path
       sodipodi:nodetypes="cccccccccccccccscccccccccccsccccccccccccscccccccscsccccccsccsccsccccccssccc"
       style="fill:#fff6d5;stroke:#ffeeaa;stroke-width:0.26458335px;stroke-linecap:butt;stroke-linejoin:miter;stroke-opacity:1"
       d="m 4.5266644,292.64514 c 0.0043,-0.0159 0.038018,-0.013 0.048216,-0.0304 0.00221,-0.004 0.00296,-0.009 0.00536,-0.0122 0.00303,-0.005 0.00756,-0.008 0.010715,-0.0122 0.00402,-0.006 0.00685,-0.0125 0.010715,-0.0182 0.00151,-0.002 0.00423,-0.003 0.00536,-0.006 8.015e-4,-0.002 -8.014e-4,-0.004 0,-0.006 0.00113,-0.003 0.00395,-0.004 0.00536,-0.006 0.00221,-0.004 0.00314,-0.008 0.00536,-0.0122 0.0014,-0.003 0.00423,-0.003 0.00536,-0.006 8.014e-4,-0.002 -8.015e-4,-0.004 0,-0.006 0.00237,-0.005 0.012821,-0.0127 0.016072,-0.0182 0.00221,-0.004 -0.152499,-0.14863 -0.1500061,-0.15217 0.014701,-0.0209 0.071055,0.006 0.088396,-0.009 -0.049533,-0.0642 0.03952,-0.19116 0.044039,-0.19371 0.0012,-5.7e-4 -3.4388757,-2.98998 -3.26872,-2.83517 0.1807732,0.16448 3.3862124,3.1343 3.3880799,3.13539 0.00226,10e-4 0.0031,0.005 0.00536,0.006 0.0016,5.7e-4 0.00376,-5.7e-4 0.00536,0 0.00226,0.001 0.00357,0.004 0.00536,0.006 0.00179,0.002 0.00357,0.004 0.00536,0.006 l 0.016072,0.0182 c 0.00179,0.002 0.00423,0.003 0.00536,0.006 8.014e-4,0.002 0,0.004 0,0.006 0.00357,0.006 0.00685,0.0125 0.010715,0.0182 0.00455,0.007 0.010715,0.0122 0.016072,0.0182 0.00714,0.008 0.013542,0.0172 0.021429,0.0243 0.019979,0.0136 -0.5416514,1.12547 0.053573,0.0182 1.8409164,-3.42446 1.4849894,-3.83665 1.4914114,-3.83365 0.00836,0.003 -1.4562094,3.84665 -1.4485534,3.85185 0.00153,0.001 0.00361,-3.1e-4 0.00536,0 0.00722,0.001 3.2576291,-2.96286 3.2648917,-2.96147 0.00964,0.002 -3.2198903,2.96391 -3.2113184,2.96756 0.00836,0.003 0.013443,0.0138 0.021429,0.0182 0.021929,0.0125 0.020305,0.002 0.042858,0.006 0.019403,0.003 0.00382,0.005 0.016072,0.0122 0.0016,5.8e-4 0.00357,0 0.00536,0 0.00714,0.004 0.01504,0.007 0.021429,0.0122 0.00143,0.001 -8.015e-4,0.004 0,0.006 0.00113,0.003 1.8503902,0.32873 1.8511902,0.33173 0.00169,0.006 2.9592526,0.50856 0.3390449,0.0376 -0.00104,-1.8e-4 -2.1842722,-0.32273 -2.1848751,-0.32073 -0.00243,0.006 -0.020424,0.0174 -0.021429,0.0182 -0.00727,0.006 -0.013443,0.0138 -0.021429,0.0182 -0.010715,0.006 -0.00804,-0.003 -0.016072,0 -0.00379,0.001 0.084148,0.15988 0.08036,0.1613 -0.0041,10e-4 5.9178985,7.78814 1.0513497,0.83734 -0.00766,0.005 -1.0275596,-0.56245 -1.0275596,-0.56245 0.055094,0.25638 0.4230932,3.42612 0.4229884,3.42553 L 4.8909952,292.7724 h -0.016107 c -0.00536,0 -0.010874,-10e-4 -0.016072,0 -0.00245,5.7e-4 -0.00296,0.005 -0.00536,0.006 -0.00339,0.001 -0.00733,-10e-4 -0.010715,0 -0.0029,0.001 -0.012552,0.0156 -0.016072,0.0182 -0.00332,0.003 -0.00739,0.003 -0.010715,0.006 -0.01226,0.009 0.00335,0.005 -0.016072,0.0122 -0.00169,5.7e-4 -0.00357,0 -0.00536,0 h -0.010714 l -2.5289311,3.85313 2.4003548,-3.85316 c 0.00444,-0.007 -0.039499,10e-4 -0.042859,0 -0.00479,-0.002 -0.00651,-0.009 -0.010715,-0.0122 -0.00148,-10e-4 -0.00357,0 -0.00536,0 -0.00714,0 -0.014652,0.003 -0.021429,0 -0.00479,-0.002 -0.00651,-0.009 -0.010715,-0.0122 -0.00148,-10e-4 -2.1252119,2.60645 -2.1268119,2.60588 -0.00605,-0.003 2.1013969,-2.63318 2.1000229,-2.63628 -8.015e-4,-0.002 8.014e-4,-0.004 0,-0.006 -0.00113,-0.003 -0.00456,-0.003 -0.00536,-0.006 -8.12e-4,-0.003 0,-0.027 0,-0.0304 v -0.0365 c 0,-0.004 -4.23897393,0.15685 -4.23967953,0.15285 -0.00144,-0.008 4.23610813,-0.18126 4.23432263,-0.18938 z"
       id="path836"
       inkscape:connector-curvature="0" />
    <path
       style="fill:url(#radialGradient848);fill-opacity:1;stroke:#cccccc;stroke-width:0.26458332px;stroke-linecap:butt;stroke-linejoin:miter;stroke-opacity:1"
       d="m 4.6023654,291.18245 c 2.5083776,-2.84069 1.3476055,0.33625 1.3476055,0.33625 0,0 2.8463733,0.0697 1.0225952,1.3696 1.3751029,1.01587 0.08048,1.09645 -0.7998549,0.85841 0.1044711,1.10535 -1.191328,3.00423 -1.6948591,1.29718 -0.2640716,-0.89524 -2.9952938,1.00069 -2.3238012,-1.05403 -0.4464676,-0.23966 -0.3826296,-1.32613 -0.3826296,-1.32613 -0.7017299,-1.70194 2.6341681,-2.60219 2.8309445,-1.48095 z"
       id="path834"
       inkscape:connector-curvature="0"
       sodipodi:nodetypes="ccccscccc" />
    <path
       style="fill:#800000;stroke:#550000;stroke-width:0.26458332px;stroke-linecap:butt;stroke-linejoin:miter;stroke-opacity:1"
       d="m 3.9672819,292.86566 c 0.8559948,-0.27898 0.9187391,-1.46998 0.9187391,-1.46998 0,0 -0.3501368,1.11283 0.5223381,1.22041 0.8724746,0.10758 1.1564487,0.34979 1.1564487,0.34979 0,0 -1.6871389,-0.42596 -1.6787868,0.11693 0.00835,0.5429 0.066817,1.54516 0.066817,1.54516 0,0 -0.2756218,-1.5201 -0.6932303,-1.42822 -0.4176088,0.0919 -2.1381563,-0.18375 -1.2110651,-0.26727 0.9270912,-0.0835 0.9187389,-0.0668 0.9187389,-0.0668 z"
       id="path840"
       inkscape:connector-curvature="0" />
  </g>
  <g
     style="display:none"
     transform="translate(0,-288.53332)"
     id="g856"
     inkscape:groupmode="layer"
     inkscape:label="6"
     sodipodi:insensitive="true">
    <path
       sodipodi:nodetypes="ccccscccc"
       inkscape:connector-curvature="0"
       id="path852"
       d="m 4.2977104,290.45633 c 3.2566033,-3.84773 1.7495837,0.45545 1.7495837,0.45545 0,0 3.69542,0.0944 1.3276258,1.85513 1.7852833,1.37601 0.1044864,1.48515 -1.0384442,1.16273 0.1356339,1.4972 -1.54669,4.06924 -2.2004198,1.75703 -0.3428417,-1.2126 -3.88876206,1.35544 -3.0169695,-1.42769 -0.5796447,-0.32462 -0.49676442,-1.79625 -0.49676442,-1.79625 -0.9110494,-2.30529 3.41991592,-3.52468 3.67538892,-2.00595 z"
       style="fill:url(#radialGradient858);fill-opacity:1;stroke:#cccccc;stroke-width:0.26458332px;stroke-linecap:butt;stroke-linejoin:miter;stroke-opacity:1" />
    <path
       inkscape:connector-curvature="0"
       id="path854"
       d="m 3.6666037,293.06611 c 0.5970774,-0.71329 0.6097087,-3.0736 0.6097087,-3.0736 0,0 0.6855326,1.34669 0.8313685,2.82403 0.086359,0.87483 2.2505833,-0.29333 2.2505833,-0.29333 0,0 -1.0217885,1.40643 -2.6225823,0.88533 0.3674934,1.01898 -0.050113,1.80408 -0.050113,1.80408 0,0 -0.3090305,-1.9043 -0.726639,-1.81242 -0.8864163,1.00821 -2.7829969,-0.67316 -1.8541824,-0.76005 0.7266391,-0.12526 1.5618562,0.42598 1.5618562,0.42598 z"
       style="fill:#800000;stroke:#550000;stroke-width:0.26458332px;stroke-linecap:butt;stroke-linejoin:miter;stroke-opacity:1"
       sodipodi:nodetypes="ccsccccccc" />
  </g>
  <g
     inkscape:label="7"
     inkscape:groupmode="layer"
     id="g864"
     transform="translate(0,-288.53332)"
     style="display:none"
     sodipodi:insensitive="true">
    <path
       style="fill:url(#radialGradient878);fill-opacity:1;stroke:#000000;stroke-width:0.26458332px;stroke-linecap:butt;stroke-linejoin:miter;stroke-opacity:0.64550261"
       d="m 5.4586624,289.22021 c 2.3879773,0.79608 0.363123,0.98164 0.363123,0.98164 0,0 2.3757767,2.14903 0.609339,1.17025 1.0586442,3.02974 1.148508,4.33324 -0.094649,2.55754 0.6367643,1.82293 -5.1464765,2.70784 -2.693198,1.48141 1.1271376,-0.56347 -3.5379708,-0.80777 -2.4490217,-2.37149 -1.47332723,-1.15148 0.054479,-2.21386 0.054479,-2.21386 1.8535198,-1.82086 2.6765726,-1.57862 1.5539371,-0.57772 z"
       id="path860"
       inkscape:connector-curvature="0"
       sodipodi:nodetypes="ccccscccc" />
    <path
       sodipodi:nodetypes="ccsccccccc"
       style="fill:#800000;stroke:#550000;stroke-width:0.26458332px;stroke-linecap:butt;stroke-linejoin:miter;stroke-opacity:1"
       d="m 3.2155864,290.52705 c 0.3799209,-0.60471 1.8541825,-0.70994 1.8541825,-0.70994 0,0 -0.2765741,0.97939 -1.3485487,2.12245 -0.411168,0.43843 -1.0735814,1.09313 -1.0735814,1.09313 0,0 3.2211152,1.87415 1.6203214,1.35305 0.3674934,1.01898 1.8541824,0.16706 1.8541824,0.16706 0,0 -2.3135519,-0.67653 -2.7311604,-0.58465 0.029942,0.007 -2.2150492,-1.24111 -1.2862347,-1.328 0.2422131,-1.13587 -0.3006783,-1.6036 -0.3006783,-1.6036 z"
       id="path862"
       inkscape:connector-curvature="0" />
  </g>
  <g
     style="display:inline"
     transform="translate(0,-288.53332)"
     id="g921"
     inkscape:groupmode="layer"
     inkscape:label="8">
    <path
       sodipodi:nodetypes="ccccscccc"
       inkscape:connector-curvature="0"
       id="path917"
       d="m 5.4419581,289.63782 c 2.3879773,0.79608 -1.0818029,0.0796 -1.0818029,0.0796 0,0 2.6681027,2.4163 0.901665,1.43752 1.0586442,3.02974 -3.2948479,1.05919 1.0746552,2.74964 0.6367643,1.82293 -6.54964152,2.07308 -4.096363,0.84665 1.1271376,-0.56347 -1.951058,-4.09853 -0.7034176,-2.24621 -1.47332725,-1.15148 -0.3130166,-1.71273 -0.3130166,-1.71273 0.8679634,-2.83982 2.066864,-0.0502 0.5600285,-0.96192 z"
       style="fill:url(#radialGradient878);fill-opacity:1;stroke:#000000;stroke-width:0.26458332px;stroke-linecap:butt;stroke-linejoin:miter;stroke-opacity:0.16931218" />
    <path
       inkscape:connector-curvature="0"
       id="path919"
       d="m 3.6666037,290.67739 c 0.3756186,0.42733 -1.9997008,0.86661 -1.5451519,0.55959 0.6848783,1.95444 -0.5326699,0.13133 -0.3173826,-0.20043 0.3441842,-0.53039 1.8625345,-0.35916 1.8625345,-0.35916 z"
       style="fill:#800000;stroke:#550000;stroke-width:0.26458332px;stroke-linecap:butt;stroke-linejoin:miter;stroke-opacity:1"
       sodipodi:nodetypes="ccsc" />
  </g>
</svg>
